PathFileType	4	(X/Y/Z)	C:\Users\italobelli\Desktop\GitHub\PTbot_officialCBL\Personal_Results\SHRUG02_noisy1.trc
DataRate	CameraRate	NumFrames	NumMarkers	Units	OrigDataRate	OrigDataStartFrame	OrigNumFrames
112.250000	112.250000	46	9	m	112.250000	169	450
Frame#	Time		gu		centelbow		EpL		centpxt8		centijc7		ij		ts		aa		ai
			X1	Y1	Z1	X2	Y2	Z2	X3	Y3	Z3	X4	Y4	Z4	X5	Y5	Z5	X6	Y6	Z6	X7	Y7	Z7	X8	Y8	Z8	X9	Y9	Z9

169	1.4967	-0.066537	0.051205	0.15731	-0.098094	-0.18641	0.23166	-0.075545	-0.17796	0.25309	-0.046816	-0.15316	-0.008669	-0.046816	0.031938	-0.008669	0	0	0	-0.13136	0.057266	0.042605	-0.093422	0.08937	0.15099	-0.14813	-0.046676	0.085021
170	1.5056	-0.066415	0.051692	0.15731	-0.097867	-0.1858	0.23196	-0.075303	-0.17732	0.25337	-0.046816	-0.15316	-0.008669	-0.046816	0.031938	-0.008669	0	0	0	-0.13134	0.057351	0.042499	-0.093316	0.089837	0.15083	-0.14802	-0.046508	0.085196
171	1.5145	-0.066297	0.052156	0.1573	-0.097639	-0.18521	0.23225	-0.075062	-0.17671	0.25365	-0.046816	-0.15316	-0.008669	-0.046816	0.031938	-0.008669	0	0	0	-0.13132	0.057433	0.042398	-0.093212	0.090283	0.15069	-0.14792	-0.046346	0.085364
172	1.5234	-0.066183	0.052598	0.1573	-0.09741	-0.18464	0.23254	-0.074819	-0.17611	0.25391	-0.046816	-0.15316	-0.008669	-0.046816	0.031938	-0.008669	0	0	0	-0.1313	0.057513	0.042302	-0.09311	0.09071	0.15054	-0.14782	-0.046191	0.085525
173	1.5323	-0.066072	0.053019	0.1573	-0.097178	-0.18409	0.23283	-0.074576	-0.17554	0.25418	-0.046816	-0.15316	-0.008669	-0.046816	0.031938	-0.008669	0	0	0	-0.13128	0.05759	0.042211	-0.093009	0.091117	0.15041	-0.14772	-0.046042	0.08568
174	1.5412	-0.065964	0.05342	0.15731	-0.096945	-0.18356	0.23311	-0.074331	-0.17499	0.25444	-0.046816	-0.15316	-0.008669	-0.046816	0.031938	-0.008669	0	0	0	-0.13125	0.057664	0.042124	-0.092911	0.091504	0.15028	-0.14763	-0.0459	0.085829
175	1.5501	-0.06586	0.053799	0.15731	-0.096711	-0.18305	0.23339	-0.074086	-0.17446	0.2547	-0.046816	-0.15316	-0.008669	-0.046816	0.031938	-0.008669	0	0	0	-0.13122	0.057736	0.042042	-0.092814	0.091873	0.15016	-0.14754	-0.045764	0.08597
176	1.559	-0.065759	0.054158	0.15732	-0.096476	-0.18257	0.23366	-0.07384	-0.17396	0.25495	-0.046816	-0.15316	-0.008669	-0.046816	0.031938	-0.008669	0	0	0	-0.13119	0.057805	0.041965	-0.09272	0.092222	0.15005	-0.14745	-0.045634	0.086106
177	1.5679	-0.065662	0.054496	0.15734	-0.096241	-0.1821	0.23393	-0.073595	-0.17347	0.2552	-0.046816	-0.15316	-0.008669	-0.046816	0.031938	-0.008669	0	0	0	-0.13116	0.057872	0.041892	-0.092627	0.092553	0.14994	-0.14736	-0.04551	0.086234
178	1.5768	-0.065568	0.054813	0.15735	-0.096004	-0.18165	0.23419	-0.073349	-0.17301	0.25544	-0.046816	-0.15316	-0.008669	-0.046816	0.031938	-0.008669	0	0	0	-0.13113	0.057935	0.041824	-0.092537	0.092864	0.14984	-0.14728	-0.045393	0.086356
179	1.5857	-0.065478	0.05511	0.15737	-0.095768	-0.18123	0.23445	-0.073104	-0.17257	0.25568	-0.046816	-0.15316	-0.008669	-0.046816	0.031938	-0.008669	0	0	0	-0.13109	0.057996	0.04176	-0.092449	0.093157	0.14974	-0.14719	-0.045282	0.086472
180	1.5947	-0.065391	0.055386	0.15739	-0.095532	-0.18083	0.2347	-0.072859	-0.17216	0.25591	-0.046816	-0.15316	-0.008669	-0.046816	0.031938	-0.008669	0	0	0	-0.13105	0.058054	0.041701	-0.092363	0.093431	0.14966	-0.14712	-0.045178	0.086581
181	1.6036	-0.065309	0.055643	0.15741	-0.095297	-0.18044	0.23495	-0.072615	-0.17176	0.25614	-0.046816	-0.15316	-0.008669	-0.046816	0.031938	-0.008669	0	0	0	-0.13102	0.058109	0.041646	-0.092279	0.093686	0.14958	-0.14704	-0.04508	0.086684
182	1.6125	-0.065229	0.055879	0.15744	-0.095062	-0.18008	0.23519	-0.072372	-0.17139	0.25636	-0.046816	-0.15316	-0.008669	-0.046816	0.031938	-0.008669	0	0	0	-0.13098	0.058162	0.041596	-0.092197	0.093923	0.1495	-0.14697	-0.044988	0.08678
183	1.6214	-0.065154	0.056096	0.15747	-0.094828	-0.17974	0.23543	-0.072131	-0.17104	0.25658	-0.046816	-0.15316	-0.008669	-0.046816	0.031938	-0.008669	0	0	0	-0.13093	0.058211	0.04155	-0.092118	0.094142	0.14943	-0.1469	-0.044902	0.08687
184	1.6303	-0.065082	0.056292	0.1575	-0.094595	-0.17942	0.23566	-0.071891	-0.17072	0.25679	-0.046816	-0.15316	-0.008669	-0.046816	0.031938	-0.008669	0	0	0	-0.13089	0.058257	0.041508	-0.092041	0.094342	0.14937	-0.14684	-0.044823	0.086953
185	1.6392	-0.065014	0.056469	0.15753	-0.094364	-0.17913	0.23588	-0.071652	-0.17041	0.257	-0.046816	-0.15316	-0.008669	-0.046816	0.031938	-0.008669	0	0	0	-0.13085	0.0583	0.041471	-0.091967	0.094524	0.14932	-0.14677	-0.04475	0.08703
186	1.6481	-0.064949	0.056626	0.15757	-0.094135	-0.17885	0.2361	-0.071416	-0.17013	0.2572	-0.046816	-0.15316	-0.008669	-0.046816	0.031938	-0.008669	0	0	0	-0.1308	0.058341	0.041438	-0.091895	0.094688	0.14927	-0.14671	-0.044684	0.0871
187	1.657	-0.064889	0.056764	0.1576	-0.093908	-0.17859	0.23631	-0.071183	-0.16987	0.25739	-0.046816	-0.15316	-0.008669	-0.046816	0.031938	-0.008669	0	0	0	-0.13076	0.058378	0.041409	-0.091825	0.094835	0.14923	-0.14666	-0.044624	0.087164
188	1.6659	-0.064832	0.056882	0.15764	-0.093683	-0.17836	0.23652	-0.070951	-0.16963	0.25758	-0.046816	-0.15316	-0.008669	-0.046816	0.031938	-0.008669	0	0	0	-0.13071	0.058412	0.041385	-0.091758	0.094963	0.14919	-0.1466	-0.04457	0.087222
189	1.6748	-0.064779	0.056981	0.15768	-0.093461	-0.17815	0.23672	-0.070723	-0.16941	0.25776	-0.046816	-0.15316	-0.008669	-0.046816	0.031938	-0.008669	0	0	0	-0.13067	0.058442	0.041365	-0.091694	0.095074	0.14916	-0.14655	-0.044522	0.087273
190	1.6837	-0.06473	0.057062	0.15772	-0.093242	-0.17795	0.23691	-0.070497	-0.16922	0.25793	-0.046816	-0.15316	-0.008669	-0.046816	0.031938	-0.008669	0	0	0	-0.13062	0.05847	0.041349	-0.091632	0.095167	0.14914	-0.1465	-0.044481	0.087317
191	1.6927	-0.064686	0.057123	0.15777	-0.093026	-0.17778	0.23709	-0.070275	-0.16905	0.2581	-0.046816	-0.15316	-0.008669	-0.046816	0.031938	-0.008669	0	0	0	-0.13057	0.058494	0.041337	-0.091573	0.095243	0.14912	-0.14646	-0.044446	0.087355
192	1.7016	-0.064645	0.057165	0.15781	-0.092814	-0.17763	0.23727	-0.070057	-0.1689	0.25826	-0.046816	-0.15316	-0.008669	-0.046816	0.031938	-0.008669	0	0	0	-0.13052	0.058515	0.041329	-0.091517	0.095302	0.14911	-0.14642	-0.044418	0.087387
193	1.7105	-0.064608	0.057188	0.15786	-0.092605	-0.1775	0.23744	-0.069842	-0.16877	0.25842	-0.046816	-0.15316	-0.008669	-0.046816	0.031938	-0.008669	0	0	0	-0.13048	0.058533	0.041326	-0.091463	0.095343	0.1491	-0.14638	-0.044395	0.087412
194	1.7194	-0.064575	0.057193	0.15791	-0.0924	-0.1774	0.2376	-0.069631	-0.16867	0.25856	-0.046816	-0.15316	-0.008669	-0.046816	0.031938	-0.008669	0	0	0	-0.13043	0.058547	0.041326	-0.091412	0.095367	0.1491	-0.14634	-0.04438	0.087431
195	1.7283	-0.064546	0.05718	0.15796	-0.0922	-0.17731	0.23775	-0.069425	-0.16859	0.2587	-0.046816	-0.15316	-0.008669	-0.046816	0.031938	-0.008669	0	0	0	-0.13038	0.058558	0.041331	-0.091364	0.095374	0.14911	-0.14631	-0.04437	0.087444
196	1.7372	-0.064521	0.057148	0.15801	-0.092004	-0.17725	0.2379	-0.069223	-0.16853	0.25883	-0.046816	-0.15316	-0.008669	-0.046816	0.031938	-0.008669	0	0	0	-0.13033	0.058566	0.04134	-0.091319	0.095364	0.14913	-0.14628	-0.044367	0.08745
197	1.7461	-0.064501	0.057098	0.15807	-0.091813	-0.1772	0.23804	-0.069026	-0.16849	0.25896	-0.046816	-0.15316	-0.008669	-0.046816	0.031938	-0.008669	0	0	0	-0.13028	0.05857	0.041353	-0.091277	0.095338	0.14914	-0.14626	-0.04437	0.087449
198	1.755	-0.064484	0.057029	0.15812	-0.091628	-0.17718	0.23816	-0.068833	-0.16848	0.25908	-0.046816	-0.15316	-0.008669	-0.046816	0.031938	-0.008669	0	0	0	-0.13023	0.058571	0.041369	-0.091238	0.095294	0.14917	-0.14624	-0.044379	0.087442
199	1.7639	-0.064472	0.056943	0.15818	-0.091447	-0.17718	0.23828	-0.068646	-0.16849	0.25918	-0.046816	-0.15316	-0.008669	-0.046816	0.031938	-0.008669	0	0	0	-0.13019	0.058568	0.04139	-0.091202	0.095235	0.1492	-0.14622	-0.044395	0.087429
200	1.7728	-0.064464	0.056839	0.15823	-0.091273	-0.1772	0.2384	-0.068465	-0.16852	0.25928	-0.046816	-0.15316	-0.008669	-0.046816	0.031938	-0.008669	0	0	0	-0.13014	0.058561	0.041415	-0.091169	0.095158	0.14924	-0.1462	-0.044417	0.08741
201	1.7817	-0.064461	0.056717	0.15829	-0.091104	-0.17724	0.2385	-0.068289	-0.16857	0.25938	-0.046816	-0.15316	-0.008669	-0.046816	0.031938	-0.008669	0	0	0	-0.13009	0.058551	0.041443	-0.091139	0.095066	0.14928	-0.14619	-0.044446	0.087384
202	1.7906	-0.064461	0.056577	0.15835	-0.090942	-0.17731	0.23859	-0.06812	-0.16865	0.25946	-0.046816	-0.15316	-0.008669	-0.046816	0.031938	-0.008669	0	0	0	-0.13005	0.058537	0.041476	-0.091112	0.094957	0.14933	-0.14618	-0.04448	0.087352
203	1.7996	-0.064466	0.05642	0.15841	-0.090786	-0.17739	0.23867	-0.067956	-0.16875	0.25954	-0.046816	-0.15316	-0.008669	-0.046816	0.031938	-0.008669	0	0	0	-0.13	0.058519	0.041512	-0.091088	0.094832	0.14938	-0.14618	-0.044521	0.087313
204	1.8085	-0.064476	0.056246	0.15847	-0.090637	-0.1775	0.23875	-0.067799	-0.16887	0.2596	-0.046816	-0.15316	-0.008669	-0.046816	0.031938	-0.008669	0	0	0	-0.12996	0.058498	0.041552	-0.091068	0.094691	0.14944	-0.14618	-0.044569	0.087268
205	1.8174	-0.06449	0.056054	0.15854	-0.090495	-0.17763	0.23881	-0.067649	-0.16901	0.25966	-0.046816	-0.15316	-0.008669	-0.046816	0.031938	-0.008669	0	0	0	-0.12991	0.058473	0.041596	-0.091051	0.094535	0.14951	-0.14618	-0.044622	0.087217
206	1.8263	-0.064508	0.055845	0.1586	-0.090361	-0.17777	0.23887	-0.067506	-0.16918	0.25971	-0.046816	-0.15316	-0.008669	-0.046816	0.031938	-0.008669	0	0	0	-0.12987	0.058444	0.041644	-0.091037	0.094362	0.14958	-0.14618	-0.044682	0.087159
207	1.8352	-0.064531	0.055619	0.15866	-0.090234	-0.17795	0.23891	-0.06737	-0.16936	0.25975	-0.046816	-0.15316	-0.008669	-0.046816	0.031938	-0.008669	0	0	0	-0.12983	0.058412	0.041695	-0.091026	0.094174	0.14966	-0.14619	-0.044749	0.087095
208	1.8441	-0.064558	0.055376	0.15873	-0.090115	-0.17814	0.23895	-0.067242	-0.16957	0.25978	-0.046816	-0.15316	-0.008669	-0.046816	0.031938	-0.008669	0	0	0	-0.12979	0.058375	0.041751	-0.091019	0.09397	0.14974	-0.1462	-0.044821	0.087025
209	1.853	-0.06459	0.055116	0.15879	-0.090004	-0.17835	0.23897	-0.067121	-0.16981	0.2598	-0.046816	-0.15316	-0.008669	-0.046816	0.031938	-0.008669	0	0	0	-0.12975	0.058335	0.04181	-0.091016	0.093751	0.14983	-0.14622	-0.0449	0.086948
210	1.8619	-0.064626	0.05484	0.15886	-0.089902	-0.17859	0.23899	-0.067008	-0.17006	0.25981	-0.046816	-0.15316	-0.008669	-0.046816	0.031938	-0.008669	0	0	0	-0.12971	0.05829	0.041872	-0.091016	0.093516	0.14993	-0.14624	-0.044985	0.086865
211	1.8708	-0.064667	0.054547	0.15892	-0.089808	-0.17885	0.23899	-0.066903	-0.17034	0.25981	-0.046816	-0.15316	-0.008669	-0.046816	0.031938	-0.008669	0	0	0	-0.12967	0.058242	0.041938	-0.09102	0.093267	0.15003	-0.14626	-0.045077	0.086776
212	1.8797	-0.064712	0.054238	0.15899	-0.089724	-0.17912	0.23898	-0.066807	-0.17064	0.2598	-0.046816	-0.15316	-0.008669	-0.046816	0.031938	-0.008669	0	0	0	-0.12964	0.058189	0.042008	-0.091027	0.093002	0.15013	-0.14629	-0.045175	0.08668
213	1.8886	-0.064763	0.053912	0.15905	-0.089648	-0.17943	0.23896	-0.06672	-0.17097	0.25979	-0.046816	-0.15316	-0.008669	-0.046816	0.031938	-0.008669	0	0	0	-0.12961	0.058133	0.042082	-0.091038	0.092722	0.15024	-0.14632	-0.045279	0.086578
214	1.8976	-0.064818	0.05357	0.15912	-0.089583	-0.17975	0.23893	-0.066641	-0.17131	0.25976	-0.046816	-0.15316	-0.008669	-0.046816	0.031938	-0.008669	0	0	0	-0.12957	0.058072	0.042159	-0.091052	0.092427	0.15036	-0.14635	-0.04539	0.08647
